<svg width="80" height="80" viewBox="0 0 80 80" fill="none" xmlns="http://www.w3.org/2000/svg">
<path opacity="0.5" d="M40 40C45.5228 40 50 35.5228 50 30C50 24.4772 45.5228 20 40 20C34.4772 20 30 24.4772 30 30C30 35.5228 34.4772 40 40 40Z" stroke="black" stroke-width="6.3125"/>
<path d="M40.0001 73.3332C58.4096 73.3332 73.3334 58.4093 73.3334 39.9998C73.3334 21.5903 58.4096 6.6665 40.0001 6.6665C21.5906 6.6665 6.66675 21.5903 6.66675 39.9998C6.66675 58.4093 21.5906 73.3332 40.0001 73.3332Z" stroke="black" stroke-width="6.3125"/>
<path opacity="0.5" d="M59.897 66.6667C59.3667 57.0283 56.4157 50 39.9997 50C23.584 50 20.633 57.0283 20.1025 66.6667" stroke="black" stroke-width="6.3125" stroke-linecap="round"/>
</svg>
